<svg width="8" height="13" viewBox="0 0 8 13" fill="none" xmlns="http://www.w3.org/2000/svg">
<path fill-rule="evenodd" clip-rule="evenodd" d="M7.3843 5.61669C7.61838 5.85107 7.74987 6.16878 7.74987 6.50003C7.74987 6.83128 7.61838 7.14899 7.3843 7.38336L2.67097 12.0984C2.43647 12.3327 2.11847 12.4644 1.78692 12.4643C1.45537 12.4642 1.13743 12.3324 0.903049 12.0979C0.668664 11.8634 0.537031 11.5454 0.537109 11.2139C0.537188 10.8824 0.66897 10.5644 0.903465 10.33L4.73347 6.50003L0.903465 2.67003C0.675654 2.43438 0.54951 2.11869 0.552203 1.79094C0.554895 1.46319 0.686208 1.14961 0.91786 0.917742C1.14951 0.685871 1.46297 0.554262 1.79071 0.551261C2.11846 0.548259 2.43427 0.674106 2.67013 0.901695L7.38513 5.61586L7.3843 5.61669Z" fill="white"/>
</svg>
