<svg width="25" height="24" viewBox="0 0 25 24" fill="none" xmlns="http://www.w3.org/2000/svg">
    <path d="M15.4293 5.90395C14.8278 5.29126 14.1109 4.80382 13.3199 4.46978C12.5289 4.13574 11.6796 3.96172 10.821 3.95778C9.96236 3.95383 9.11148 4.12004 8.31747 4.44679C7.52345 4.77355 6.80204 5.25438 6.19491 5.86152C5.58777 6.46865 5.10694 7.19006 4.78019 7.98407C4.45343 8.77809 4.28723 9.62897 4.29117 10.4876C4.29512 11.3462 4.46914 12.1955 4.80317 12.9865C5.13721 13.7775 5.62465 14.4944 6.23734 15.0959C7.46009 16.2964 9.10743 16.9655 10.821 16.9576C12.5345 16.9498 14.1756 16.2656 15.3873 15.0539C16.599 13.8422 17.2832 12.2011 17.291 10.4876C17.2989 8.77404 16.6298 7.1267 15.4293 5.90395ZM4.82334 4.48995C6.35616 2.95751 8.4165 2.06852 10.583 2.00478C12.7495 1.94103 14.8586 2.70735 16.4789 4.14702C18.0991 5.58669 19.1082 7.59094 19.2997 9.74992C19.4913 11.9089 18.8508 14.0595 17.5093 15.7619L22.8543 21.1069L21.4403 22.5209L16.0953 17.1759C14.3923 18.5125 12.2436 19.149 10.0874 18.9555C7.93121 18.7621 5.93005 17.7534 4.49212 16.1351C3.05419 14.5167 2.28784 12.4108 2.34939 10.2468C2.41094 8.08288 3.29575 6.02391 4.82334 4.48995Z" fill="#979797"/>
</svg>
